<svg id="Layer_1" data-name="Layer 1" xmlns="http://www.w3.org/2000/svg" xmlns:xlink="http://www.w3.org/1999/xlink" viewBox="0 0 1024 1024"><defs><style>.cls-1{fill:url(#linear-gradient);}.cls-2{fill:#ed2c85;}.cls-3,.cls-4{fill:none;stroke:#fff;stroke-miterlimit:10;stroke-width:20px;}.cls-3{opacity:0.5;}</style><linearGradient id="linear-gradient" x1="-43.3" y1="70.76" x2="1076.49" y2="960.54" gradientUnits="userSpaceOnUse"><stop offset="0" stop-color="#ed2c85"/><stop offset="1" stop-color="#ad2f92"/></linearGradient></defs><rect class="cls-1" width="1024" height="1024"/><rect class="cls-2" width="1024" height="1024"/><path class="cls-3" d="M712,332V790.53A21.47,21.47,0,0,1,690.53,812H333.47A21.47,21.47,0,0,1,312,790.53V233.47A21.47,21.47,0,0,1,333.47,212H592"/><line class="cls-4" x1="373.62" y1="329.88" x2="535.21" y2="329.88"/><line class="cls-4" x1="373.62" y1="379.88" x2="535.21" y2="379.88"/><line class="cls-4" x1="372" y1="534.29" x2="652" y2="534.29"/><line class="cls-4" x1="373.62" y1="584.29" x2="652" y2="584.29"/><line class="cls-4" x1="372" y1="634.29" x2="652" y2="634.29"/><line class="cls-4" x1="373.62" y1="684.29" x2="652" y2="684.29"/><line class="cls-4" x1="712" y1="152" x2="712" y2="272"/><line class="cls-4" x1="772" y1="212" x2="652" y2="212"/></svg>